<mxfile host="app.diagrams.net" agent="Mozilla/5.0 (Windows NT 10.0; Win64; x64) AppleWebKit/537.36 (KHTML, like Gecko) Chrome/124.0.0.0 Safari/537.36 SLBrowser/9.0.6.2081 SLBChan/33 SLBVPV/64-bit" version="26.1.1">
  <diagram name="第 1 页" id="cC6RooN1porXghZ-0zzk">
    <mxGraphModel dx="1075" dy="1620" grid="1" gridSize="10" guides="1" tooltips="1" connect="1" arrows="1" fold="1" page="1" pageScale="1" pageWidth="827" pageHeight="1169" math="0" shadow="0">
      <root>
        <mxCell id="0" />
        <mxCell id="1" parent="0" />
        <mxCell id="3hclKP-oYodnJdaM3YGF-3" value="" style="edgeStyle=orthogonalEdgeStyle;rounded=0;orthogonalLoop=1;jettySize=auto;html=1;" edge="1" parent="1" source="3hclKP-oYodnJdaM3YGF-1" target="3hclKP-oYodnJdaM3YGF-2">
          <mxGeometry relative="1" as="geometry" />
        </mxCell>
        <mxCell id="3hclKP-oYodnJdaM3YGF-21" value="" style="edgeStyle=orthogonalEdgeStyle;rounded=0;orthogonalLoop=1;jettySize=auto;html=1;" edge="1" parent="1" source="3hclKP-oYodnJdaM3YGF-1" target="3hclKP-oYodnJdaM3YGF-20">
          <mxGeometry relative="1" as="geometry" />
        </mxCell>
        <mxCell id="3hclKP-oYodnJdaM3YGF-1" value="上传简历" style="rounded=1;whiteSpace=wrap;html=1;" vertex="1" parent="1">
          <mxGeometry x="50" y="-20" width="120" height="60" as="geometry" />
        </mxCell>
        <mxCell id="3hclKP-oYodnJdaM3YGF-5" value="" style="edgeStyle=orthogonalEdgeStyle;rounded=0;orthogonalLoop=1;jettySize=auto;html=1;" edge="1" parent="1" source="3hclKP-oYodnJdaM3YGF-2" target="3hclKP-oYodnJdaM3YGF-4">
          <mxGeometry relative="1" as="geometry" />
        </mxCell>
        <mxCell id="3hclKP-oYodnJdaM3YGF-23" value="" style="edgeStyle=orthogonalEdgeStyle;rounded=0;orthogonalLoop=1;jettySize=auto;html=1;" edge="1" parent="1" source="3hclKP-oYodnJdaM3YGF-2" target="3hclKP-oYodnJdaM3YGF-22">
          <mxGeometry relative="1" as="geometry" />
        </mxCell>
        <mxCell id="3hclKP-oYodnJdaM3YGF-2" value="生成标签" style="whiteSpace=wrap;html=1;rounded=1;" vertex="1" parent="1">
          <mxGeometry x="250" y="-20" width="120" height="60" as="geometry" />
        </mxCell>
        <mxCell id="3hclKP-oYodnJdaM3YGF-7" value="" style="edgeStyle=orthogonalEdgeStyle;rounded=0;orthogonalLoop=1;jettySize=auto;html=1;" edge="1" parent="1" source="3hclKP-oYodnJdaM3YGF-4" target="3hclKP-oYodnJdaM3YGF-6">
          <mxGeometry relative="1" as="geometry" />
        </mxCell>
        <mxCell id="3hclKP-oYodnJdaM3YGF-19" value="" style="edgeStyle=orthogonalEdgeStyle;rounded=0;orthogonalLoop=1;jettySize=auto;html=1;" edge="1" parent="1" source="3hclKP-oYodnJdaM3YGF-4" target="3hclKP-oYodnJdaM3YGF-18">
          <mxGeometry relative="1" as="geometry" />
        </mxCell>
        <mxCell id="3hclKP-oYodnJdaM3YGF-4" value="简历操作" style="whiteSpace=wrap;html=1;rounded=1;" vertex="1" parent="1">
          <mxGeometry x="450" y="-20" width="120" height="60" as="geometry" />
        </mxCell>
        <mxCell id="3hclKP-oYodnJdaM3YGF-25" value="" style="edgeStyle=orthogonalEdgeStyle;rounded=0;orthogonalLoop=1;jettySize=auto;html=1;" edge="1" parent="1" source="3hclKP-oYodnJdaM3YGF-6" target="3hclKP-oYodnJdaM3YGF-24">
          <mxGeometry relative="1" as="geometry" />
        </mxCell>
        <mxCell id="3hclKP-oYodnJdaM3YGF-6" value="人岗匹配" style="whiteSpace=wrap;html=1;rounded=1;" vertex="1" parent="1">
          <mxGeometry x="650" y="-20" width="120" height="60" as="geometry" />
        </mxCell>
        <mxCell id="3hclKP-oYodnJdaM3YGF-18" value="查询(筛选)&lt;br&gt;删除&lt;br&gt;收藏&lt;br&gt;下载&lt;br&gt;分析(对比)&lt;br&gt;相似候选人" style="shape=step;perimeter=stepPerimeter;whiteSpace=wrap;html=1;fixedSize=1;rounded=1;" vertex="1" parent="1">
          <mxGeometry x="450" y="110" width="120" height="100" as="geometry" />
        </mxCell>
        <mxCell id="3hclKP-oYodnJdaM3YGF-20" value="解析&lt;div&gt;保存&lt;/div&gt;" style="shape=step;perimeter=stepPerimeter;whiteSpace=wrap;html=1;fixedSize=1;rounded=1;" vertex="1" parent="1">
          <mxGeometry x="50" y="110" width="120" height="80" as="geometry" />
        </mxCell>
        <mxCell id="3hclKP-oYodnJdaM3YGF-22" value="&lt;br&gt;打标签&lt;br&gt;标签管理&lt;br&gt;分类管理&lt;br&gt;标签体系&lt;br&gt;&lt;div&gt;&lt;br&gt;&lt;/div&gt;" style="shape=step;perimeter=stepPerimeter;whiteSpace=wrap;html=1;fixedSize=1;rounded=1;" vertex="1" parent="1">
          <mxGeometry x="250" y="110" width="120" height="80" as="geometry" />
        </mxCell>
        <mxCell id="3hclKP-oYodnJdaM3YGF-24" value="岗位" style="shape=step;perimeter=stepPerimeter;whiteSpace=wrap;html=1;fixedSize=1;rounded=1;" vertex="1" parent="1">
          <mxGeometry x="650" y="110" width="120" height="80" as="geometry" />
        </mxCell>
      </root>
    </mxGraphModel>
  </diagram>
</mxfile>
